# xmcd CD database file
#
# Track frame offsets:
#	150
#	18452
#	36580
#	52925
#	66955
#	85417
#	98987
#	106892
#	123520
#	142755
#	155757
#	173137
#	188640
#	207435
#	225702
#
# Disc length: 3221 seconds
#
# Revision: 1
# Processed by: cddbd v1.5PL3 Copyright (c) Steve Scherf et al.
# Submitted via: CDex 1.51
#
DISCID=ce0c930f
DTITLE=Hal Ketchum - The King Of Love
DYEAR=2003
DGENRE=Folk/Rock
TTITLE0=Everytime I Look In Your Eyes
TTITLE1=Run Loretta Run
TTITLE2=As Long As You Love Me
TTITLE3=The King Of Love 
TTITLE4=On Her Own Time
TTITLE5=God Makes Stars 
TTITLE6=The Ruby And The Rose
TTITLE7=Taking My Time 
TTITLE8=The Way She Loves Me
TTITLE9=The Carpenter's Way
TTITLE10=Evangeline
TTITLE11=Prisoner Of Love
TTITLE12=Too Much Of Nothing
TTITLE13=The Skies Over Dublin
TTITLE14=Angel Song
EXTD=Tracks 2-15 Produced by Hal Ketchum\nTrack 1 Produced by Michael Lloyd\nMixed by Michael Lloyd and Bob Kearney at Cherokee Studios YEAR: 2003
EXTT0=
EXTT1=
EXTT2=
EXTT3=
EXTT4=
EXTT5=
EXTT6=
EXTT7=
EXTT8=
EXTT9=
EXTT10=
EXTT11=
EXTT12=
EXTT13=
EXTT14=
PLAYORDER=
